<svg width="128" height="30" viewBox="0 0 128 30" fill="none" xmlns="http://www.w3.org/2000/svg">
<path d="M0.6 26.92C0.6 28.32 1.56 29.2 2.88 29.2C4.2 29.2 5.12 28.24 5.12 26.92V7.8L19.6 27.64C20.32 28.68 21.2 29.2 22.24 29.2C23.84 29.2 25 28 25 26.36V3C25 1.72 24.08 0.799998 22.76 0.799998C21.44 0.799998 20.52 1.72 20.52 3V21.76L6.28 2.32C5.6 1.32 4.72 0.799998 3.64 0.799998C1.88 0.799998 0.6 2.04 0.6 3.84V26.92ZM33.2816 26.36C35.3616 28.4 37.9616 29.4 41.0816 29.4C44.2016 29.4 46.8016 28.36 48.9216 26.28C51.0416 24.2 52.1216 21.64 52.1216 18.64C52.1216 15.64 51.0816 13.12 49.0016 11.12C46.9616 9.08 44.3616 8.08 41.2416 8.08C38.1216 8.08 35.4816 9.12 33.3616 11.2C31.2416 13.24 30.2016 15.8 30.2016 18.8C30.2016 21.8 31.2416 24.32 33.2816 26.36ZM34.6016 18.72C34.6016 16.84 35.2416 15.28 36.4816 14.04C37.7216 12.76 39.2816 12.12 41.1616 12.12C43.0416 12.12 44.6016 12.76 45.8416 14.04C47.0816 15.28 47.7216 16.84 47.7216 18.72C47.7216 20.6 47.0816 22.2 45.8416 23.48C44.6016 24.72 43.0416 25.36 41.1616 25.36C39.2816 25.36 37.7216 24.72 36.4816 23.48C35.2416 22.2 34.6016 20.6 34.6016 18.72ZM61.1988 3C61.1988 1.72 60.2788 0.799998 58.9588 0.799998C57.6388 0.799998 56.7188 1.72 56.7188 3V26.92C56.7188 28.24 57.6388 29.2 58.9588 29.2C60.2788 29.2 61.1988 28.24 61.1988 26.92V3ZM68.8675 26.36C70.9475 28.4 73.5475 29.4 76.6675 29.4C79.7875 29.4 82.3875 28.36 84.5075 26.28C86.6275 24.2 87.7075 21.64 87.7075 18.64C87.7075 15.64 86.6675 13.12 84.5875 11.12C82.5475 9.08 79.9475 8.08 76.8275 8.08C73.7075 8.08 71.0675 9.12 68.9475 11.2C66.8275 13.24 65.7875 15.8 65.7875 18.8C65.7875 21.8 66.8275 24.32 68.8675 26.36ZM70.1875 18.72C70.1875 16.84 70.8275 15.28 72.0675 14.04C73.3075 12.76 74.8675 12.12 76.7475 12.12C78.6275 12.12 80.1875 12.76 81.4275 14.04C82.6675 15.28 83.3075 16.84 83.3075 18.72C83.3075 20.6 82.6675 22.2 81.4275 23.48C80.1875 24.72 78.6275 25.36 76.7475 25.36C74.8675 25.36 73.3075 24.72 72.0675 23.48C70.8275 22.2 70.1875 20.6 70.1875 18.72ZM92.1047 27C92.1047 28.28 93.0247 29.2 94.3047 29.2C95.6247 29.2 96.5047 28.28 96.5047 27V19.84C96.5047 15.04 98.8247 12.56 102.665 12.56C103.985 12.56 104.945 11.6 104.945 10.28C104.945 9 103.985 8.08 102.665 8.08C99.7847 8.08 97.4247 9.76 96.1047 12.76L96.0247 10.2C96.2647 7.68 91.8647 7.68 92.1047 10.2V27ZM119.479 8.08C116.399 8.08 113.679 9.48 112.239 12.16V10.32C112.519 7.64 107.879 7.64 108.159 10.32V27C108.159 28.28 109.079 29.2 110.359 29.2C111.679 29.2 112.559 28.28 112.559 27V18.76C112.559 14.28 114.839 12.12 118.039 12.12C120.919 12.12 122.959 14.2 122.959 18.36V27C122.959 28.28 123.879 29.2 125.159 29.2C126.479 29.2 127.359 28.28 127.359 27V16.96C127.359 14.12 126.599 11.96 125.119 10.4C123.639 8.84 121.759 8.08 119.479 8.08Z" fill="black"/>
</svg>
